<?xml version="1.0" encoding="utf-8"?>
<!-- Generator: Adobe Illustrator 21.0.0, SVG Export Plug-In . SVG Version: 6.00 Build 0)  -->
<svg version="1.1" id="Layer_1" xmlns="http://www.w3.org/2000/svg" xmlns:xlink="http://www.w3.org/1999/xlink" x="0px" y="0px"
	 viewBox="0 0 30 30" style="enable-background:new 0 0 30 30;" xml:space="preserve">
<style type="text/css">
	.st0{fill:none;}
	.st1{fill:#FFFFFF;}
</style>
<rect x="0" class="st0" width="30" height="30"/>
<g>
	<polygon class="st1" points="13.9,26.7 9,19.7 9,26.3 7,26.3 7,16.3 8.9,16.3 13.5,22.1 14.5,15.5 16.6,15.7 16.4,25.9 	"/>
	<g>
		<path class="st1" d="M16.1,15.1c-2.7,0-5.4-2.1-5.4-4.6c0-2.5,1.7-4.9,4.3-4.9c2.7,0,4.7,2,5.3,4.9C20.9,12.9,18.8,15.1,16.1,15.1M21.9,7.8c-1-3.4-5.1-4.6-8.7-3.5c-3.6,1.1-5.4,4.6-4.4,8c1,3.4,6.2,5.8,9.6,4.2C22.3,14.6,23,11.3,21.9,7.8"/>
		<path class="st1" d="M18.5,10.4c-0.6,1.7-2.2,3-3.8,3c-1.6,0-2.5-1.3-2.1-3c0.5-1.6,1.4-2.6,2.9-3C17.6,6.9,19.1,8.8,18.5,10.4"/>
	</g>
</g>
</svg>
